<?xml version="1.0" encoding="UTF-8"?>
<!DOCTYPE svg PUBLIC "-//W3C//DTD SVG 1.1//EN" "http://www.w3.org/Graphics/SVG/1.1/DTD/svg11.dtd">
<!-- Creator: CorelDRAW 2021 (64-Bit) -->
<svg xmlns="http://www.w3.org/2000/svg" xml:space="preserve" width="101px" height="61px" version="1.1" style="shape-rendering:geometricPrecision; text-rendering:geometricPrecision; image-rendering:optimizeQuality; fill-rule:evenodd; clip-rule:evenodd"
viewBox="0 0 17.693 10.719"
 xmlns:xlink="http://www.w3.org/1999/xlink"
 xmlns:xodm="http://www.corel.com/coreldraw/odm/2003">
 <defs>
  <style type="text/css">
   <![CDATA[
    .fil0 {fill:#18A10B;fill-rule:nonzero}
   ]]>
  </style>
 </defs>
 <g id="Layer_x0020_1">
  <metadata id="CorelCorpID_0Corel-Layer"/>
  <g>
   <path class="fil0" d="M0.223 0.879c-0.093,0.026 -0.189,-0.027 -0.216,-0.12 -0.027,-0.092 0.027,-0.189 0.119,-0.216l0.097 0.336zm3.748 -0.879l0 0.349 0 0 -0.119 0.001 -0.119 0.001 -0.119 0.003 -0.118 0.003 -0.119 0.005 -0.119 0.006 -0.118 0.007 -0.118 0.007 -0.119 0.009 -0.118 0.01 -0.118 0.011 -0.118 0.012 -0.118 0.013 -0.118 0.014 -0.117 0.015 -0.118 0.016 -0.117 0.017 -0.117 0.018 -0.117 0.019 -0.117 0.021 -0.117 0.021 -0.116 0.022 -0.117 0.023 -0.116 0.025 -0.116 0.025 -0.116 0.026 -0.115 0.028 -0.115 0.028 -0.115 0.029 -0.115 0.031 -0.115 0.031 -0.114 0.033 -0.097 -0.336 0.117 -0.033 0.118 -0.032 0.118 -0.031 0.118 -0.031 0.118 -0.029 0.119 -0.028 0.118 -0.027 0.119 -0.026 0.119 -0.025 0.12 -0.023 0.119 -0.023 0.12 -0.022 0.12 -0.021 0.12 -0.019 0.12 -0.019 0.12 -0.017 0.121 -0.017 0.12 -0.015 0.121 -0.015 0.121 -0.013 0.121 -0.012 0.121 -0.012 0.122 -0.01 0.121 -0.009 0.121 -0.008 0.122 -0.007 0.122 -0.006 0.121 -0.004 0.122 -0.004 0.122 -0.003 0.122 -0.001 0.122 -0.001 0 0zm0 0c0.096,0 0.174,0.078 0.174,0.174 0,0.097 -0.078,0.175 -0.174,0.175l0 -0.349zm13.075 9.233l-0.329 0.117 -0.189 -0.501 -0.207 -0.489 -0.225 -0.479 -0.242 -0.467 -0.259 -0.455 -0.275 -0.443 -0.291 -0.431 -0.306 -0.418 -0.322 -0.404 -0.336 -0.392 -0.35 -0.377 -0.363 -0.363 -0.376 -0.349 -0.389 -0.334 -0.402 -0.319 -0.412 -0.303 -0.424 -0.287 -0.435 -0.272 -0.445 -0.255 -0.454 -0.238 -0.464 -0.221 -0.473 -0.203 -0.481 -0.186 -0.488 -0.167 -0.497 -0.149 -0.503 -0.131 -0.51 -0.111 -0.515 -0.092 -0.521 -0.071 -0.527 -0.052 -0.53 -0.032 -0.535 -0.01 0 -0.349 0.548 0.011 0.545 0.032 0.54 0.053 0.534 0.074 0.529 0.094 0.523 0.114 0.516 0.133 0.509 0.153 0.502 0.172 0.493 0.191 0.485 0.208 0.476 0.227 0.466 0.244 0.456 0.262 0.446 0.278 0.435 0.295 0.423 0.311 0.412 0.327 0.399 0.343 0.386 0.357 0.373 0.373 0.359 0.387 0.344 0.401 0.33 0.415 0.314 0.429 0.299 0.442 0.282 0.454 0.266 0.467 0.248 0.48 0.231 0.49 0.212 0.503 0.194 0.513zm0.647 -0.382l-0.305 1.868 -1.414 -1.258 1.719 -0.61zm-0.647 0.382c0.032,0.091 -0.015,0.191 -0.106,0.223 -0.091,0.032 -0.191,-0.015 -0.223,-0.106l0.329 -0.117z"/>
  </g>
 </g>
</svg>
