<?xml version="1.0" encoding="UTF-8"?>
<!DOCTYPE svg PUBLIC "-//W3C//DTD SVG 1.1//EN" "http://www.w3.org/Graphics/SVG/1.1/DTD/svg11.dtd">
<!-- Creator: CorelDRAW 2021 (64-Bit) -->
<svg xmlns="http://www.w3.org/2000/svg" xml:space="preserve" width="255px" height="168px" version="1.1" style="shape-rendering:geometricPrecision; text-rendering:geometricPrecision; image-rendering:optimizeQuality; fill-rule:evenodd; clip-rule:evenodd"
viewBox="0 0 414.744 272.018"
 xmlns:xlink="http://www.w3.org/1999/xlink"
 xmlns:xodm="http://www.corel.com/coreldraw/odm/2003">
 <defs>
  <style type="text/css">
   <![CDATA[
    .str1 {stroke:#DDDDDD;stroke-width:1.623;stroke-linecap:round;stroke-linejoin:round;stroke-miterlimit:2.61313}
    .str0 {stroke:#F0F2F1;stroke-width:1.623;stroke-linecap:round;stroke-linejoin:round;stroke-miterlimit:2.61313}
    .fil5 {fill:#153E90}
    .fil4 {fill:#18A10B}
    .fil12 {fill:#27A81B}
    .fil7 {fill:#7ED8FF}
    .fil9 {fill:#82D7AE}
    .fil2 {fill:#82D7AE}
    .fil11 {fill:#CCCCFF}
    .fil8 {fill:#DC90FF}
    .fil6 {fill:#DDDDDD}
    .fil3 {fill:#DDDDDD}
    .fil0 {fill:#F2F2F2}
    .fil10 {fill:#FF9999}
    .fil1 {fill:white}
   ]]>
  </style>
 </defs>
 <g id="Layer_x0020_1">
  <metadata id="CorelCorpID_0Corel-Layer"/>
  <g id="_2359416838864">
   <rect class="fil0 str0" x="0.812" y="0.81" width="356.633" height="240.396" rx="4.612" ry="17.495"/>
   <rect class="fil1 str1" x="82.919" y="18.091" width="315.996" height="56.148" rx="7.716" ry="7.716"/>
   <rect class="fil1 str1" x="47.127" y="152.59" width="366.805" height="118.615" rx="5.392" ry="9.813"/>
   <rect class="fil2" x="328.309" y="34.776" width="52.786" height="23.711" rx="5.363" ry="5.363"/>
   <rect class="fil3" x="246.314" y="41.59" width="18.383" height="7.788" rx="1.868" ry="1.762"/>
   <rect class="fil3" x="218.852" y="41.59" width="18.383" height="7.788" rx="1.868" ry="1.762"/>
   <rect class="fil3" x="190.536" y="41.59" width="18.383" height="7.788" rx="1.868" ry="1.762"/>
   <g>
    <path class="fil4" d="M125.836 48.331l8.061 -11.578c0,0 1.714,-1.818 3.352,-0.179l3.481 5.118c-1.159,0.963 -2.717,1.971 -3.972,2.75l-1.133 -1.861 -2.15 3.659c-0.246,0.139 -0.495,0.277 -0.745,0.413 -1.3,0.566 -4.23,1.694 -6.894,1.678zm15.749 -5.4l5.766 8.746 -18.051 0.009 7.153 -3.883 2.377 0.169 -1.344 -2.238c1.411,-0.871 2.812,-1.814 4.099,-2.803z"/>
    <path class="fil5" d="M141.379 35.705c0,0 8.338,0.677 -0.222,6.56 0,0 -19.944,14.199 -21.307,7.601 0,0 -4.688,6.457 4.333,4.004 3.271,-0.965 16.045,-6.826 23.056,-13.955 0,0 4.021,-4.501 -5.86,-4.21z"/>
   </g>
   <rect class="fil6" x="188.942" y="191.656" width="87.861" height="4.709" rx="10.443" ry="2.355"/>
   <rect class="fil6" x="188.942" y="205.774" width="61.036" height="4.709" rx="7.255" ry="2.355"/>
   <rect class="fil7" x="189.51" y="171.11" width="46.632" height="9.417" rx="5.543" ry="4.709"/>
   <rect class="fil8" x="187.816" y="228.884" width="33.632" height="8.049" rx="3.998" ry="4.025"/>
   <rect class="fil6" x="67.943" y="203.233" width="87.861" height="4.709" rx="10.443" ry="2.355"/>
   <rect class="fil6" x="67.943" y="217.351" width="61.036" height="4.709" rx="7.255" ry="2.355"/>
   <rect class="fil9" x="311.767" y="231.057" width="83.783" height="24.193" rx="9.959" ry="12.097"/>
   <rect class="fil6" x="188.942" y="247.198" width="73.394" height="4.709" rx="8.724" ry="2.355"/>
   <rect class="fil6" x="114.906" y="237.594" width="14.29" height="14.29" rx="3.613" ry="3.613"/>
   <rect class="fil6" x="92.441" y="237.594" width="14.29" height="14.29" rx="3.613" ry="3.613"/>
   <rect class="fil6" x="69.976" y="237.594" width="14.29" height="14.29" rx="3.613" ry="3.613"/>
   <circle class="fil10" cx="22.677" cy="20.017" r="4.369"/>
   <circle class="fil11" cx="38.23" cy="20.017" r="4.369"/>
   <circle class="fil12" cx="53.782" cy="20.017" r="4.369"/>
   <g>
    <path class="fil4" d="M87.359 181.626l8.06 -11.578c0,0 1.714,-1.818 3.353,-0.179l3.48 5.118c-1.159,0.963 -2.717,1.971 -3.972,2.75l-1.133 -1.861 -2.15 3.659c-0.246,0.139 -0.495,0.277 -0.744,0.414 -1.301,0.565 -4.231,1.693 -6.894,1.677zm15.748 -5.4l5.766 8.746 -18.051 0.009 7.153 -3.883 2.377 0.169 -1.344 -2.238c1.411,-0.871 2.812,-1.814 4.099,-2.803z"/>
    <path class="fil5" d="M102.901 169c0,0 8.338,0.677 -0.222,6.56 0,0 -19.943,14.199 -21.306,7.601 0,0 -4.689,6.457 4.333,4.005 3.27,-0.966 16.044,-6.827 23.055,-13.956 0,0 4.021,-4.501 -5.86,-4.21z"/>
   </g>
  </g>
  <path class="fil2" d="M328.326 186.502c0,-3.948 0.306,-5.692 1.849,-9.306 1.582,-3.707 5.738,-7.867 9.451,-9.452 5.89,-2.514 11.026,-2.512 16.91,0 2.877,1.228 5.869,3.932 7.688,6.447 0.345,0.477 0.633,0.931 0.937,1.447 1.49,2.537 2.675,6.136 2.675,9.16 0,3.948 -0.306,5.693 -1.848,9.307 -0.231,0.541 -0.52,1.022 -0.796,1.504 -1.371,2.396 -3.42,4.57 -5.651,6.184 -0.478,0.346 -0.932,0.633 -1.448,0.937 -2.537,1.49 -6.135,2.675 -9.16,2.675 -3.948,0 -5.693,-0.306 -9.307,-1.849 -0.54,-0.231 -1.021,-0.519 -1.503,-0.795 -4.443,-2.541 -7.947,-7.107 -9.184,-12.104 -0.3,-1.212 -0.613,-2.684 -0.613,-4.155zm19.074 -9.197c0,0.606 0.447,1.462 0.8,1.755 2.979,2.48 6.472,-1.32 4.12,-3.524 -1.813,-1.7 -4.92,-0.477 -4.92,1.769zm-4.258 7.153c0.253,-0.021 2.263,-0.77 3.008,-0.027 0.843,0.842 -0.335,3.941 -0.641,5.033 -0.846,3.022 -2.248,6.486 2.206,7.112 1.222,0.172 2.533,-0.245 3.638,-0.671 0.267,-0.104 0.919,-0.358 1.156,-0.377 0.072,-0.31 0.226,-1.039 0.34,-1.277 -0.644,0.014 -0.213,0.255 -2.298,0.255 -3.423,0 1.804,-7.787 0.4,-10.789 -0.31,-0.662 -0.888,-1.127 -1.577,-1.403 -0.715,-0.285 -1.64,-0.326 -2.559,-0.23 -0.365,0.039 -3.185,0.869 -3.371,1.143 -0.081,0.121 -0.297,1.012 -0.302,1.231zm4.006 -20.606l2.138 0c2.75,0.135 5.481,0.794 8.021,2.014 4.696,2.254 8.386,5.872 10.586,10.616 1.451,3.129 1.987,5.825 1.987,9.764 0,5.634 -2.698,11.17 -6.365,14.838 -1.728,1.728 -3.902,3.282 -6.266,4.379 -3.129,1.451 -5.824,1.986 -9.764,1.986 -8.19,0 -15.839,-5.347 -19.216,-12.631 -1.451,-3.128 -1.986,-5.825 -1.986,-9.764 0,-5.633 2.697,-11.17 6.364,-14.837 3.895,-3.894 9.15,-6.105 14.501,-6.365z"/>
 </g>
</svg>
