<svg width="87" height="50" viewBox="0 0 87 50" fill="none" xmlns="http://www.w3.org/2000/svg">
<path d="M56.9589 4.83795C56.9285 7.83907 57.5997 9.63523 60.0242 9.72195L60.6582 9.7287C63.5715 11.8289 62.9161 17.339 63.0726 18.4956C62.8936 19.6476 63.4364 25.1701 60.4814 27.2106L59.8474 27.2039C57.4217 27.2422 56.7134 29.0237 56.683 32.0248C56.656 34.6937 56.2021 36.8728 58.2258 36.8931L59.4938 36.9054C61.049 36.9212 62.4746 36.4505 63.5512 35.6678C63.5512 35.6678 66.5107 33.8807 67.7967 29.5372C68.1368 28.3886 68.299 27.2106 68.3113 26.0282L68.3868 18.5474L68.4623 11.0665C68.4746 9.88411 68.3361 8.7028 68.0186 7.5474C66.8204 3.17917 63.8981 1.33233 63.8981 1.33233C62.8384 0.528277 61.4217 0.0282778 59.8665 0.0125121L58.5985 0.000124676C56.5771 -0.0190194 56.9859 2.16904 56.9589 4.83795Z" fill="#51B448"/>
<path d="M20.4805 9.57003C20.4738 7.66125 21.3487 6.08692 23.1032 4.84819C24.7586 3.68265 26.7395 3.09594 29.0458 3.08919C31.0537 3.08243 32.8465 3.53963 34.4253 4.45855C36.2046 5.49459 37.4613 6.98895 38.1978 8.9394C38.3487 9.32003 39.0278 11.4394 40.235 15.2975C41.3588 18.9056 42.3138 21.6409 43.0987 23.5024C44.2192 26.186 45.1359 27.4821 45.8487 27.3921C46.3295 27.2873 46.6561 27.1173 46.8295 26.8819C47.003 26.6466 47.0886 26.3155 47.0874 25.8898L47.0131 3.46982L54.5041 3.44504L54.5829 27.4067C54.5897 29.5948 53.6662 31.2637 51.8093 32.4157C50.2023 33.4044 48.1437 33.9033 45.637 33.9112C42.2991 33.9224 39.6291 32.4337 37.6257 29.445C36.2913 27.4675 35.0176 24.2558 33.8082 19.811C32.4636 14.9405 31.4816 11.9045 30.8634 10.7029C30.6967 10.3955 30.4715 10.1612 30.1888 10.0002C29.9062 9.83917 29.6156 9.76034 29.3161 9.76034C28.9512 9.76147 28.6359 9.89097 28.3713 10.1489C28.1066 10.4067 27.9749 10.7626 27.976 11.2187L28.0503 33.6387L20.5593 33.6634L20.4805 9.57003Z" fill="#05191A"/>
<path d="M8.5743 48.1148C8.5743 48.6576 8.35246 49.1047 7.90989 49.456C7.4921 49.786 6.9921 49.9515 6.41215 49.9515C5.90652 49.9515 5.45494 49.8198 5.05855 49.5562C4.61148 49.2601 4.29616 48.8333 4.11148 48.277C4.07431 48.1688 3.90427 47.5641 3.60359 46.465C3.32319 45.4369 3.08558 44.6576 2.88851 44.1272C2.6081 43.3626 2.37837 42.9921 2.19932 43.018C2.0777 43.0472 1.99549 43.0957 1.95157 43.1621C1.90765 43.2285 1.88626 43.3231 1.88626 43.4436V49.8254H0V43.0056C0 42.3828 0.234234 41.9087 0.702701 41.5822C1.10811 41.3017 1.62725 41.1621 2.259 41.1621C3.10022 41.1621 3.77139 41.5889 4.27251 42.4414C4.60697 43.0056 4.92454 43.9211 5.22634 45.1869C5.5608 46.5743 5.80517 47.4391 5.96057 47.7815C6.00224 47.8693 6.05854 47.9357 6.12949 47.9819C6.20043 48.0281 6.27363 48.0506 6.34908 48.0506C6.44143 48.0506 6.52025 48.0146 6.58782 47.9414C6.65426 47.8682 6.68805 47.7668 6.68805 47.6373V41.2556H8.5743V48.1148Z" fill="black"/>
<path d="M12.6479 49.947C12.0826 49.947 10.8123 49.8186 10.042 49.2792C9.75936 49.0866 9.52851 48.599 9.45193 48.2398C9.37535 47.867 9.33594 47.4695 9.33594 47.0202V42.6035H11.2999V46.6598C11.2999 47.2499 11.4024 47.5708 11.5826 47.8535C11.7627 48.1485 12.1726 48.2904 12.6355 48.2904C13.1749 48.2904 13.5465 48.1497 13.7909 47.8411C14.0217 47.5326 14.1242 47.1733 14.1242 46.7375V46.6609C14.1242 46.6609 14.1242 45.6598 14.1242 44.876V44.0292C14.1242 43.2589 14.497 42.9763 14.8044 42.8355C15.2796 42.6046 16.0623 42.6046 16.0623 42.6046V47.0213C16.0623 47.3805 16.024 47.7657 15.908 48.2026C15.7796 48.6395 15.5105 49.063 15.2785 49.2555C14.6501 49.7803 13.2898 49.947 12.6479 49.947Z" fill="black"/>
<path d="M28.5538 45.4796V49.8569C28.5538 49.8569 27.7835 49.8569 27.3083 49.6384C26.9997 49.4976 26.6146 49.2274 26.6146 48.4447C26.6146 48.0855 26.6146 45.8253 26.6146 45.8253V45.7488C26.6146 45.3118 26.5121 44.9526 26.2936 44.6576C26.0493 44.3366 25.6777 44.1958 25.1382 44.1958C24.6765 44.1958 24.2779 44.3366 24.0853 44.6328C23.9051 44.9278 23.8162 45.2364 23.8162 45.8265V49.858H21.8522V45.519C21.8139 45.1857 21.7115 44.903 21.5313 44.6587C21.2869 44.3377 20.9153 44.197 20.3759 44.197C19.9142 44.197 19.5155 44.3377 19.3229 44.6339C19.1428 44.929 19.0538 45.2375 19.0538 45.8276V49.8591H17.0898V45.4684C17.0898 45.0314 17.1281 44.6215 17.2058 44.2612C17.2824 43.8884 17.5144 43.4143 17.7959 43.2082C18.5538 42.6823 19.8241 42.554 20.4018 42.554C20.9536 42.554 22.0831 42.6823 22.7768 43.0799C23.547 42.6564 24.6382 42.554 25.1518 42.554C25.7937 42.554 27.154 42.7082 27.7711 43.2477C28.002 43.4402 28.2846 43.8513 28.4006 44.2871C28.5166 44.7229 28.5538 45.1069 28.5538 45.4796Z" fill="black"/>
<path d="M30.8643 41.0123V43.3749C31.1087 43.1306 31.5062 42.8873 31.8271 42.7454C32.2382 42.5788 32.6492 42.5011 33.085 42.5011C33.4319 42.5011 33.7787 42.5776 34.1244 42.7195C34.4578 42.8603 34.7663 43.0788 35.049 43.3738C35.3181 43.6689 35.5366 44.054 35.7168 44.5168C35.8834 44.9785 35.9735 45.5315 35.9735 46.1734C35.9735 46.8152 35.8834 47.367 35.7168 47.8299C35.5366 48.2916 35.3192 48.6643 35.049 48.9594C34.7663 49.2679 34.4589 49.4853 34.1244 49.6272C33.7776 49.7679 33.1616 49.9999 32.4037 49.9999C31.9026 49.9999 31.0174 49.8839 30.2979 49.4346C29.8102 49.1261 29.5017 48.652 29.3226 48.2533C29.1943 47.9966 28.9893 47.188 28.9499 46.5461C28.9375 46.1734 28.9375 39.8322 28.9375 39.8322H29.5411C30.0422 39.8322 30.3114 39.9222 30.5298 40.1655C30.7359 40.3963 30.8643 40.6272 30.8643 41.0123ZM33.6627 44.8896C33.5219 44.6846 33.3542 44.5168 33.1492 44.3885C32.9566 44.2725 32.7123 44.2083 32.4172 44.2083C32.1346 44.2083 31.9037 44.2725 31.6852 44.3885C31.4803 44.5168 31.3125 44.6835 31.1717 44.8896C31.0434 45.0945 30.9409 45.3265 30.8767 45.5957C30.8125 45.8648 30.8001 46.0574 30.8001 46.1857C30.8001 46.3907 30.8125 46.6227 30.8767 46.8918C30.9409 47.161 31.0434 47.4053 31.1717 47.6103C31.3125 47.8152 31.4803 47.983 31.6852 48.0979C31.9037 48.2263 32.1346 48.2905 32.4172 48.2905C32.7123 48.2905 32.9566 48.2263 33.1492 48.0979C33.3542 47.9819 33.5219 47.8152 33.6627 47.6103C33.7911 47.4053 33.8936 47.161 33.9578 46.8918C34.0219 46.6227 34.0343 46.4166 34.0343 46.1857V46.0957C34.0343 45.9549 34.0084 45.8265 33.9578 45.5945C33.8936 45.3254 33.7911 45.0945 33.6627 44.8896Z" fill="black"/>
<path d="M41.6372 49.4335C41.3422 49.6137 40.9953 49.7545 40.7127 49.8187C40.4041 49.9088 39.93 49.9594 39.4931 49.973H39.3264C38.0167 49.973 37.0156 49.4212 36.6823 48.9583C36.4514 48.625 36.3996 48.3806 36.3996 47.9696C36.3996 47.9696 36.3613 47.2511 36.3613 46.4549C36.3613 45.839 36.3872 45.1836 36.4638 44.7984C36.6046 44.1565 36.9514 43.5146 37.4649 43.1678C38.1327 42.7309 38.8129 42.5 39.7115 42.5C40.0843 42.5 40.5719 42.5 41.3287 42.7691C41.5854 42.8716 41.8805 43.0383 42.073 43.2309C42.2138 43.3592 42.4064 43.616 42.5223 43.8727C42.6383 44.1295 42.7025 44.4245 42.7025 44.7714C42.7025 45.1565 42.6001 45.4651 42.4976 45.7218C42.189 46.4921 41.5224 46.7613 41.278 46.8513C41.2656 46.8513 41.2521 46.8637 41.2397 46.8637C40.9705 46.9538 40.6879 46.9921 40.4052 47.0304C40.1226 47.0822 39.8534 47.1205 39.5832 47.1464C39.3005 47.1723 39.1338 47.1723 38.9289 47.2365C38.7239 47.2883 38.5561 47.3649 38.4413 47.4673C38.3253 47.5574 38.2487 47.6723 38.2487 47.8007C38.2487 47.9414 38.2746 48.0957 38.3388 48.2117C38.519 48.4944 39.0708 48.5709 39.6226 48.5709C39.9953 48.5709 40.2769 48.4944 40.4829 48.3401C40.7014 48.1858 40.8298 47.9808 40.8557 47.6982H42.7172C42.6789 47.9932 42.5888 48.4167 42.3962 48.7128C42.2014 48.9977 41.9323 49.2669 41.6372 49.4335ZM38.9537 45.8131C39.082 45.7872 39.2228 45.7613 39.3771 45.7489C39.5179 45.7365 39.6721 45.7106 39.814 45.6847C39.9548 45.6588 40.0967 45.6205 40.2374 45.5822C40.3658 45.5304 40.4942 45.4921 40.5843 45.402C40.751 45.2354 40.9176 45.0687 40.9176 44.7477V44.6836C40.9176 44.5428 40.8793 44.4268 40.8275 44.3243C40.7633 44.2083 40.6868 44.1318 40.5832 44.0676C40.4807 44.0034 40.3523 43.9516 40.2104 43.9268C40.0697 43.9009 39.9278 43.8885 39.7735 43.8885C39.4142 43.8885 39.1316 43.9527 38.9266 44.0811C38.7217 44.1971 38.5798 44.3502 38.4773 44.518C38.3872 44.6847 38.323 44.8649 38.2971 45.0315C38.2847 45.2117 38.2712 45.3525 38.2712 45.4549V46.0709C38.3478 46.0068 38.4514 45.9549 38.5663 45.9167C38.6845 45.8772 38.8129 45.839 38.9537 45.8131Z" fill="black"/>
<path d="M45.4498 42.7962C46.0398 42.5394 46.8101 42.5394 47.3754 42.5394H47.452C47.5928 42.5394 47.773 42.5518 47.9272 42.5912V44.4144C47.8371 44.3885 47.7347 44.3761 47.6063 44.3626C47.4779 44.3502 47.3495 44.3367 47.2335 44.3367C46.8743 44.3367 46.5657 44.4009 46.3225 44.5169C46.0781 44.6329 45.8732 44.7996 45.7324 45.0045C45.5781 45.2095 45.4498 45.4415 45.3856 45.7106C45.3214 45.9933 45.309 46.3007 45.309 46.6216V49.857H43.3574C43.3574 49.857 43.3574 46.1982 43.3574 45.723C43.3574 45.0169 43.5376 44.2083 44.2302 43.5529C44.666 43.1306 45.2313 42.8863 45.4498 42.7962Z" fill="black"/>
<path d="M53.1309 49.8265H48.9688V41.3265H53.1309C54.1129 41.3265 54.8967 41.777 55.4811 42.679C56.0081 43.4932 56.2705 44.4831 56.2705 45.6486C56.2705 46.7927 56.0138 47.7511 55.4991 48.5236C54.9237 49.3918 54.1343 49.8265 53.1309 49.8265ZM52.8178 47.9831C53.2649 47.9831 53.6241 47.7218 53.8955 47.2004C54.1377 46.7331 54.2593 46.1632 54.2593 45.4909C54.2593 44.84 54.1422 44.295 53.9079 43.8569C53.6444 43.3648 53.2807 43.1182 52.8167 43.1182H50.855V47.9831H52.8178Z" fill="black"/>
<path d="M62.1782 49.4335C61.8832 49.6137 61.5363 49.7545 61.2537 49.8187C60.9451 49.9088 60.471 49.9594 60.0341 49.973H59.8674C58.5577 49.973 57.5566 49.4212 57.2233 48.9583C56.9924 48.625 56.9406 48.3806 56.9406 47.9696C56.9406 47.9696 56.9023 47.2511 56.9023 46.4549C56.9023 45.839 56.9282 45.1836 57.0048 44.7984C57.1456 44.1565 57.4924 43.5146 58.0059 43.1678C58.6737 42.7309 59.3539 42.5 60.2526 42.5C60.6253 42.5 61.1129 42.5 61.8697 42.7691C62.1264 42.8716 62.4215 43.0383 62.614 43.2309C62.7548 43.3592 62.9474 43.616 63.0634 43.8727C63.1794 44.1295 63.2435 44.4245 63.2435 44.7714C63.2435 45.1565 63.1411 45.4651 63.0386 45.7218C62.73 46.4921 62.0634 46.7613 61.819 46.8513C61.8066 46.8513 61.7931 46.8637 61.7807 46.8637C61.5116 46.9538 61.2289 46.9921 60.9463 47.0304C60.6636 47.0822 60.3945 47.1205 60.1242 47.1464C59.8415 47.1723 59.6749 47.1723 59.4699 47.2365C59.2649 47.2883 59.0972 47.3649 58.9823 47.4673C58.8663 47.5574 58.7897 47.6723 58.7897 47.8007C58.7897 47.9414 58.8156 48.0957 58.8798 48.2117C59.06 48.4944 59.6118 48.5709 60.1636 48.5709C60.5363 48.5709 60.8179 48.4944 61.024 48.3401C61.2424 48.1858 61.3708 47.9808 61.3967 47.6982H63.2582C63.2199 47.9932 63.1298 48.4167 62.9372 48.7128C62.7435 48.9977 62.4733 49.2669 62.1782 49.4335ZM59.4958 45.8131C59.6242 45.7872 59.765 45.7613 59.9192 45.7489C60.06 45.7365 60.2143 45.7106 60.3562 45.6847C60.4969 45.6588 60.6388 45.6205 60.7796 45.5822C60.908 45.5304 61.0363 45.4921 61.1264 45.402C61.2931 45.2354 61.4598 45.0687 61.4598 44.7477V44.6836C61.4598 44.5428 61.4215 44.4268 61.3697 44.3243C61.3055 44.2083 61.2289 44.1318 61.1253 44.0676C61.0228 44.0034 60.8945 43.9516 60.7526 43.9268C60.6118 43.9009 60.4699 43.8885 60.3156 43.8885C59.9564 43.8885 59.6737 43.9527 59.4688 44.0811C59.2638 44.1971 59.1219 44.3502 59.0195 44.518C58.9294 44.6847 58.8652 44.8649 58.8393 45.0315C58.8269 45.2117 58.8134 45.3525 58.8134 45.4549V46.0709C58.89 46.0068 58.9936 45.9549 59.1084 45.9167C59.2255 45.8772 59.3539 45.839 59.4958 45.8131Z" fill="black"/>
<path d="M66.2739 41.0765V45.2105L68.7896 42.6046H71.1523L68.418 45.2747L71.4608 49.858H70.6264C70.1894 49.858 69.6376 49.742 69.1759 49.4605C68.7908 49.2161 68.4957 48.947 68.3156 48.6778L67.0577 46.6238L66.275 47.3681V49.8591H64.2852V39.8333H64.6827C65.3246 39.8333 65.6579 39.9875 65.864 40.1801C66.0937 40.3828 66.2739 40.7173 66.2739 41.0765Z" fill="black"/>
<path d="M74.0531 40.9988V43.0912C74.7209 42.6295 75.4912 42.5135 76.0047 42.5135H76.159C76.6725 42.5259 77.1094 42.6542 77.4428 42.7961C77.7761 42.9369 78.0329 43.1295 78.2254 43.3862C78.418 43.6306 78.5588 43.938 78.6365 44.2973C78.713 44.6565 78.7524 45.0551 78.7524 45.5045V49.8569H78.3031C77.7513 49.8569 77.3786 49.7545 77.0959 49.4842C76.8515 49.2533 76.8009 48.9448 76.8009 48.4954V45.8513C76.8009 45.2736 76.775 44.9527 76.5565 44.5934C76.3763 44.2984 75.927 44.1441 75.4529 44.1441C75.1443 44.1441 74.6184 44.2849 74.3741 44.5934C74.0531 45.0045 74.0531 45.402 74.0531 46.0698V49.8569H72.1016V39.8311H72.6917C73.3335 39.8311 73.552 39.9594 73.7446 40.1644C73.9507 40.3964 74.0407 40.6013 74.0531 40.9988Z" fill="black"/>
<path d="M80.1255 43.5664C80.4464 43.2455 80.8191 42.9887 81.2685 42.8085C81.7178 42.6418 82.2054 42.5518 82.7572 42.5518C83.309 42.5518 83.8101 42.6418 84.2595 42.8085C84.7088 42.9887 85.0939 43.2455 85.4149 43.5664C85.7234 43.8873 85.9667 44.2725 86.1468 44.7342C86.3135 45.1835 86.4036 45.697 86.4036 46.2623C86.4036 46.8141 86.3135 47.3276 86.1468 47.777C85.9667 48.2263 85.7234 48.6114 85.4149 48.9324C85.0939 49.2657 84.7088 49.5101 84.2595 49.6767C83.8101 49.8569 83.309 49.9335 82.7572 49.9335C82.2054 49.9335 81.7178 49.8569 81.2685 49.6767C80.8191 49.5101 80.4464 49.2657 80.1255 48.9324C79.8045 48.6114 79.5601 48.2263 79.3935 47.777C79.2268 47.3276 79.1367 46.8141 79.1367 46.2623C79.1367 45.697 79.2268 45.1835 79.3935 44.7342C79.5613 44.2736 79.8045 43.8885 80.1255 43.5664ZM81.4227 47.8029C81.5511 48.0078 81.7313 48.1756 81.9487 48.304C82.1671 48.4324 82.4363 48.4966 82.7572 48.4966C83.0905 48.4966 83.3608 48.4324 83.5793 48.304C83.8101 48.1756 83.9768 48.009 84.1187 47.8029C84.2471 47.5844 84.3372 47.3412 84.3878 47.0844C84.452 46.8153 84.4779 46.5326 84.4779 46.2623C84.4779 45.9797 84.452 45.697 84.3878 45.4279C84.336 45.1587 84.2471 44.9144 84.1187 44.7094C83.9779 44.5045 83.8101 44.3367 83.5793 44.1959C83.3608 44.0675 83.0917 44.0033 82.7572 44.0033C82.4363 44.0033 82.1671 44.0675 81.9487 44.1959C81.7302 44.3367 81.5511 44.5045 81.4227 44.7094C81.2944 44.9144 81.2043 45.1587 81.1536 45.4279C81.0894 45.697 81.0635 45.9797 81.0635 46.2623C81.0635 46.5315 81.0894 46.8141 81.1536 47.0844C81.2043 47.3412 81.2944 47.5855 81.4227 47.8029Z" fill="black"/>
</svg>
